<?xml version="1.0" standalone="no"?>
<!DOCTYPE svg PUBLIC "-//W3C//DTD SVG 20010904//EN"
 "http://www.w3.org/TR/2001/REC-SVG-20010904/DTD/svg10.dtd">
<svg version="1.0" xmlns="http://www.w3.org/2000/svg"
 width="1500.000000pt" height="1500.000000pt" viewBox="0 0 1500.000000 1500.000000"
 preserveAspectRatio="xMidYMid meet">
<metadata>
Created by potrace 1.11, written by Peter Selinger 2001-2013
</metadata>
<g transform="translate(0.000000,1500.000000) scale(0.100000,-0.100000)"
fill="#000000" stroke="none">
<path d="M7327 14564 c-1 -1 -58 -5 -125 -9 -68 -3 -131 -8 -140 -10 -10 -1
-48 -6 -87 -9 -38 -4 -81 -9 -95 -11 -14 -2 -50 -7 -80 -10 -30 -4 -62 -9 -70
-10 -8 -1 -35 -6 -60 -10 -25 -4 -54 -9 -65 -12 -11 -2 -31 -6 -45 -9 -328
-63 -735 -186 -975 -294 -22 -10 -87 -39 -145 -65 -721 -323 -1386 -859 -1871
-1510 -243 -326 -456 -704 -596 -1060 -95 -243 -190 -554 -227 -745 -2 -14 -9
-45 -15 -70 -5 -25 -15 -74 -20 -110 -6 -36 -13 -74 -15 -85 -2 -11 -7 -49
-11 -85 -3 -36 -8 -76 -10 -90 -14 -104 -17 -197 -17 -514 0 -323 4 -435 17
-516 2 -14 7 -45 10 -70 3 -25 10 -67 15 -95 5 -27 12 -63 15 -80 39 -230 156
-602 276 -877 41 -95 198 -409 237 -474 16 -28 43 -76 60 -105 45 -81 107
-183 210 -347 96 -153 146 -229 402 -622 360 -552 550 -909 703 -1315 47 -127
97 -285 123 -390 38 -156 74 -335 89 -445 14 -98 18 -139 31 -300 3 -30 6
-329 8 -665 2 -335 6 -623 9 -640 3 -16 9 -55 12 -85 22 -193 111 -449 224
-644 108 -186 176 -263 690 -777 273 -272 528 -520 566 -551 240 -191 517
-318 828 -379 144 -28 460 -31 607 -5 14 3 41 7 60 10 19 3 62 13 95 22 33 8
67 17 75 19 9 2 60 20 115 40 198 74 363 168 520 297 117 96 1029 1009 1107
1109 201 257 314 520 373 869 7 43 13 253 20 680 2 179 6 357 9 395 3 39 8
113 11 165 12 198 22 326 41 555 7 84 61 331 103 470 32 107 109 332 130 380
5 11 16 36 24 55 92 219 301 621 421 810 13 19 58 91 101 160 44 69 139 216
212 327 290 442 457 710 576 923 76 138 210 409 252 510 14 36 32 79 40 95 84
185 217 668 241 872 3 32 8 61 10 64 27 47 27 996 -1 1141 -2 11 -6 39 -9 62
-5 38 -30 184 -40 231 -2 11 -11 54 -20 95 -109 522 -348 1088 -651 1545 -220
330 -360 502 -624 765 -487 487 -1016 835 -1651 1088 -165 66 -376 139 -429
148 -13 3 -31 8 -40 13 -9 4 -43 13 -76 20 -33 7 -71 17 -85 21 -22 8 -165 39
-245 55 -16 3 -41 7 -55 10 -13 3 -42 7 -65 10 -22 3 -47 8 -55 10 -8 2 -37 6
-65 10 -27 3 -61 8 -75 10 -56 8 -128 17 -180 20 -30 3 -95 7 -145 11 -78 6
-483 12 -488 8z m418 -879 c138 -9 257 -21 315 -30 14 -2 48 -7 75 -10 225
-26 660 -147 925 -257 124 -52 408 -192 490 -242 351 -214 565 -380 833 -650
512 -515 878 -1185 1023 -1871 29 -136 58 -332 71 -470 10 -113 10 -528 0
-615 -4 -36 -10 -83 -12 -105 -2 -22 -7 -56 -11 -75 -3 -19 -8 -46 -10 -60
-78 -459 -296 -958 -679 -1550 -34 -52 -81 -126 -106 -164 -24 -39 -93 -145
-154 -238 -295 -449 -412 -641 -565 -921 -99 -181 -230 -455 -280 -582 -13
-33 -32 -80 -43 -104 -25 -58 -151 -441 -167 -508 -11 -47 -15 -53 -38 -54
-15 0 -151 -1 -303 -1 -269 0 -277 0 -320 23 -24 13 -47 22 -51 21 -3 -1 -12
5 -18 13 -7 8 -16 15 -21 15 -8 0 -139 79 -289 173 -104 65 -310 210 -310 218
0 3 34 48 75 100 331 412 581 889 730 1394 28 93 79 304 89 365 3 19 7 44 10
55 2 11 7 45 11 75 4 30 9 62 10 71 21 110 21 382 1 484 -2 11 -7 40 -11 65
-8 54 -38 161 -70 250 -118 332 -369 630 -689 819 -136 80 -378 169 -511 187
-22 3 -60 10 -85 14 -81 15 -405 4 -505 -18 -285 -61 -560 -203 -760 -392
-266 -250 -425 -548 -485 -905 -30 -177 -33 -556 -6 -725 10 -60 20 -126 22
-140 7 -59 92 -379 114 -435 5 -11 18 -47 30 -80 11 -33 25 -69 29 -80 5 -11
18 -40 28 -65 25 -61 134 -281 179 -360 65 -115 228 -359 301 -450 84 -107
160 -197 170 -203 7 -4 17 -16 23 -27 9 -17 -2 -28 -97 -96 -116 -81 -324
-213 -420 -265 -32 -17 -86 -47 -121 -66 l-62 -34 -264 -2 -264 -2 -22 75
c-93 327 -190 577 -356 915 -184 375 -293 559 -729 1230 -370 569 -442 689
-573 950 -95 191 -132 275 -190 435 -70 191 -141 482 -157 640 -4 36 -8 67
-10 70 -6 9 -18 244 -18 345 0 225 28 519 68 705 2 14 9 48 15 75 14 72 16 84
33 145 54 194 68 239 120 380 329 887 996 1637 1858 2089 397 209 842 355
1268 417 25 4 55 8 66 10 11 2 47 6 80 9 33 3 69 8 80 10 11 2 76 7 145 11 69
3 126 7 127 8 5 4 279 -2 368 -9z m-131 -5040 c128 -28 250 -97 353 -202 68
-68 90 -99 127 -175 61 -129 77 -204 71 -356 -2 -67 -6 -125 -8 -130 -3 -4 -8
-29 -11 -57 -4 -27 -9 -57 -11 -65 -2 -8 -7 -30 -10 -49 -20 -119 -102 -383
-157 -508 -10 -23 -18 -45 -18 -48 0 -14 -134 -281 -182 -362 -45 -77 -168
-270 -190 -298 -5 -5 -36 -45 -69 -87 -55 -71 -79 -92 -79 -70 0 4 -14 23 -31
42 -277 311 -495 717 -593 1105 -59 234 -68 563 -20 747 66 258 286 465 549
518 44 8 233 6 279 -5z m1699 -4350 c-3 -18 -16 -270 -15 -287 0 -10 -5 -19
-11 -19 -7 -1 -426 -2 -932 -3 l-920 -2 -68 -23 c-69 -23 -170 -91 -197 -131
-8 -12 -20 -28 -26 -34 -18 -19 -51 -96 -65 -149 -7 -29 -10 -82 -6 -133 10
-174 116 -311 292 -380 48 -18 87 -19 965 -21 503 -1 923 -2 933 -3 17 0 18
-7 13 -77 -5 -68 -10 -101 -32 -209 -2 -12 -14 -45 -27 -74 l-24 -53 -1685 0
c-927 0 -1691 4 -1697 7 -14 9 -57 154 -70 236 -6 37 -13 337 -15 685 -3 341
-6 631 -8 645 -3 14 -3 28 -1 31 5 12 3598 5 3596 -6z m-1037 -2604 c-161
-160 -251 -230 -362 -282 -90 -43 -157 -63 -286 -87 -44 -9 -221 -7 -279 2
-56 9 -178 46 -239 74 -129 58 -238 147 -474 390 l-38 40 908 0 907 0 -137
-137z"/>
<path d="M8198 13160 c-100 -17 -237 -116 -291 -210 -60 -105 -72 -274 -27
-380 56 -131 152 -216 295 -260 135 -42 241 -82 365 -137 568 -253 1037 -632
1338 -1084 69 -103 138 -231 220 -406 49 -106 106 -174 185 -221 152 -92 352
-80 493 29 79 61 146 172 161 266 18 124 -1 199 -107 420 -170 354 -388 660
-663 935 -80 79 -122 118 -247 225 -350 301 -852 584 -1350 762 -171 61 -274
77 -372 61z"/>
</g>
</svg>
